# File created by Blade
# Date/Time:  Fri Jan 16 15:45:56 2015
#---------------------------------------------------------
:version 1.10
:name HOM
:units
  mass 1.0
  length 1.000000
  angle deg
:documentation
     Acclaim Skeleton File
:root
   axis xyz
   order TX TY TZ RX RY RZ
   position 0.000000 0.000000 0.000000
   orientation 0 0 0
:bonedata
   begin
      id 1
      name Spine_dum
      direction 0.000000 1.000000 0.000000
      length 7.170412
      axis 0.0 0.0 0.0 xyz
   end
   begin
      id 2
      name LeftUpLeg_dum
      direction 1.000000 0.000000 0.000000
      length 4.318350
      axis 0.0 0.0 0.0 xyz
   end
   begin
      id 3
      name RightUpLeg_dum
      direction -1.000000 0.000000 0.000000
      length 4.318350
      axis 0.0 0.0 0.0 xyz
   end
   begin
      id 4
      name Spine
      direction 0.000000 1.000000 0.000000
      length 0.000000
      axis 0.0 0.0 0.0 xyz
      dof rx ry rz
   end
   begin
      id 5
      name Spine_dum1
      direction 0.000000 1.000000 0.000000
      length 14.276153
      axis 0.0 0.0 0.0 xyz
   end
   begin
      id 6
      name Spine_dum2
      direction 0.000000 1.000000 0.000000
      length 10.718243
      axis 0.0 0.0 0.0 xyz
   end
   begin
      id 7
      name Spine_dum3
      direction 0.000000 1.000000 0.000000
      length 10.718243
      axis 0.0 0.0 0.0 xyz
   end
   begin
      id 8
      name Head
      direction 0.000000 1.000000 0.000000
      length 4.527550
      axis 0.0 0.0 0.0 xyz
      dof rx ry rz
   end
   begin
      id 9
      name LeftShoulder
      direction 1.000000 0.000000 0.000000
      length 7.058872
      axis 0.0 0.0 -90.0 xyz
      dof rx ry rz
   end
   begin
      id 10
      name LeftArm
      direction 1.000000 0.000000 0.000000
      length 10.955525
      axis 0.0 0.0 -90.0 xyz
      dof rx ry rz
   end
   begin
      id 11
      name LeftForeArm
      direction 1.000000 0.000000 0.000000
      length 8.193716
      axis 0.0 0.0 -90.0 xyz
      dof ry rz rx
   end
   begin
      id 12
      name LeftHand
      direction 0.000000 0.000000 0.000000
      length 0.000000
      axis 0.0 0.0 -90.0 xyz
      dof rx ry rz
   end
   begin
      id 13
      name LeftHand_dum1
      direction 0.000000 0.000000 0.000000
      length 0.000000
      axis 0.0 0.0 -90.0 xyz
   end
   begin
      id 14
      name LeftHand_dum2
      direction 1.000000 0.000000 0.000000
      length 3.937000
      axis 0.0 0.0 -90.0 xyz
   end
   begin
      id 15
      name LeftHandThumb1
      direction 0.000000 0.000000 1.000000
      length 3.937000
      axis 0.0 0.0 -90.0 xyz
      dof rx rz ry
   end
   begin
      id 16
      name RightShoulder
      direction -1.000000 0.000000 0.000000
      length 7.058872
      axis 0.0 0.0 90.0 xyz
      dof rx ry rz
   end
   begin
      id 17
      name RightArm
      direction -1.000000 0.000000 0.000000
      length 10.955525
      axis 0.0 0.0 90.0 xyz
      dof rx ry rz
   end
   begin
      id 18
      name RightForeArm
      direction -1.000000 0.000000 0.000000
      length 8.193716
      axis 0.0 0.0 90.0 xyz
      dof ry rz rx
   end
   begin
      id 19
      name RightHand
      direction 0.000000 0.000000 0.000000
      length 0.000000
      axis 0.0 0.0 90.0 xyz
      dof rx ry rz
   end
   begin
      id 20
      name RightHand_dum1
      direction 0.000000 0.000000 0.000000
      length 0.000000
      axis 0.0 0.0 90.0 xyz
   end
   begin
      id 21
      name RightHand_dum2
      direction -1.000000 0.000000 0.000000
      length 3.937000
      axis 0.0 0.0 90.0 xyz
   end
   begin
      id 22
      name RightHandThumb1
      direction 0.000000 0.000000 1.000000
      length 3.937000
      axis 0.0 0.0 90.0 xyz
      dof rx rz ry
   end
   begin
      id 23
      name LeftUpLeg
      direction 0.000000 -1.000000 0.000000
      length 17.323638
      axis 0.0 0.0 0.0 xyz
      dof rx ry rz
   end
   begin
      id 24
      name LeftLeg
      direction 0.000000 -1.000000 0.000000
      length 16.270368
      axis 0.0 0.0 0.0 xyz
      dof rx ry rz
   end
   begin
      id 25
      name LeftFoot
      direction 0.000000 -0.258819 0.965926
      length 4.922846
      axis 15.0 0.0 0.0 xyz
      dof rx ry rz
   end
   begin
      id 26
      name LeftToeBase
      direction 0.000000 0.000000 1.000000
      length 2.952750
      axis 0.0 0.0 0.0 xyz
      dof rx ry rz
   end
   begin
      id 27
      name RightUpLeg
      direction 0.000000 -1.000000 0.000000
      length 17.323638
      axis 0.0 0.0 0.0 xyz
      dof rx ry rz
   end
   begin
      id 28
      name RightLeg
      direction 0.000000 -1.000000 0.000000
      length 16.270368
      axis 0.0 0.0 0.0 xyz
      dof rx ry rz
   end
   begin
      id 29
      name RightFoot
      direction 0.000000 -0.258819 0.965926
      length 4.922846
      axis 15.0 0.0 0.0 xyz
      dof rx ry rz
   end
   begin
      id 30
      name RightToeBase
      direction 0.000000 0.000000 1.000000
      length 2.952750
      axis 0.0 0.0 0.0 xyz
      dof rx ry rz
   end
:hierarchy
   begin
      root Spine_dum LeftUpLeg_dum RightUpLeg_dum
      Spine_dum Spine
      LeftUpLeg_dum LeftUpLeg
      RightUpLeg_dum RightUpLeg
      Spine Spine_dum1 Spine_dum2 Spine_dum3
      Spine_dum1 Head
      Spine_dum2 LeftShoulder
      Spine_dum3 RightShoulder
      LeftShoulder LeftArm
      LeftArm LeftForeArm
      LeftForeArm LeftHand
      LeftHand LeftHand_dum1 LeftHand_dum2
      LeftHand_dum1 LeftHandThumb1
      RightShoulder RightArm
      RightArm RightForeArm
      RightForeArm RightHand
      RightHand RightHand_dum1 RightHand_dum2
      RightHand_dum1 RightHandThumb1
      LeftUpLeg LeftLeg
      LeftLeg LeftFoot
      LeftFoot LeftToeBase
      RightUpLeg RightLeg
      RightLeg RightFoot
      RightFoot RightToeBase
   end

# File created by Blade
# Date/Time:  Fri Jan 16 15:45:48 2015
# Frame Rate: 120.000 fps
#------------------------------------------------------
:FULLY-SPECIFIED
:DEGREES
3306
root -6.091319 35.091878 -9.305466 0.957377 15.252018 -3.372807
Spine -11.515332 4.572977 -0.029562
Head -1.324352 -44.129000 -6.269863
LeftShoulder -19.857083 11.829846 -18.052081
LeftArm 21.217038 6.012855 -63.913074
LeftForeArm 14.072783 -0.000000 12.009338
LeftHand 2.284281 0.000000 -8.269930
LeftHandThumb1 -26.253704 0.000000 33.147579
RightShoulder -8.919508 28.323000 -40.861567
RightArm 77.525756 61.385364 72.761048
RightForeArm 45.041748 -0.000000 27.847393
RightHand -2.626254 -0.000000 -49.291197
RightHandThumb1 -24.326973 -0.000000 -32.862282
LeftUpLeg 5.088011 0.258902 5.746874
LeftLeg -8.688244 -0.000000 0.000000
LeftFoot -12.881692 21.457976 -8.189713
LeftToeBase 22.944519 -0.000000 -0.000000
RightUpLeg 9.570448 -15.419050 2.063587
RightLeg -5.476754 -0.000000 0.000000
RightFoot -9.146718 -34.866229 6.592410
RightToeBase 13.520494 -0.000000 -0.000000
3307
root -6.084918 35.091345 -9.308989 0.957341 15.266195 -3.358996
Spine -11.455205 4.617171 -0.013322
Head -1.247185 -44.112253 -6.339514
LeftShoulder -19.877510 11.812657 -18.043426
LeftArm 21.210127 6.022391 -64.006270
LeftForeArm 14.157871 -0.000000 12.070147
LeftHand 2.246289 -0.000000 -8.040202
LeftHandThumb1 -26.253704 0.000000 33.147579
RightShoulder -8.921670 28.422889 -40.890184
RightArm 77.592073 61.529819 72.844164
RightForeArm 45.063511 -0.000000 28.241771
RightHand -2.938292 0.000000 -49.369573
RightHandThumb1 -24.326973 -0.000000 -32.862282
LeftUpLeg 5.088093 0.255774 5.720451
LeftLeg -8.695603 -0.000000 0.000000
LeftFoot -12.881510 21.461048 -8.181636
LeftToeBase 22.961657 -0.000000 -0.000000
RightUpLeg 9.589173 -15.417754 2.040261
RightLeg -5.510791 -0.000000 0.000000
RightFoot -9.135149 -34.875618 6.600221
RightToeBase 13.514876 -0.000000 -0.000000
3308
root -6.077011 35.090430 -9.310324 0.940096 15.274783 -3.346590
Spine -11.382562 4.664808 -0.001092
Head -1.145900 -44.082901 -6.396215
LeftShoulder -19.904792 11.769380 -18.069341
LeftArm 21.250081 6.150109 -63.972403
LeftForeArm 13.922324 -0.000000 12.005320
LeftHand 2.308216 -0.000000 -8.437310
LeftHandThumb1 -26.253704 0.000000 33.147579
RightShoulder -8.913457 28.496632 -40.880298
RightArm 77.437733 61.668764 72.567395
RightForeArm 45.001417 -0.000000 28.488488
RightHand -2.786160 -0.000000 -49.264621
RightHandThumb1 -24.326973 -0.000000 -32.862282
LeftUpLeg 5.117229 0.221825 5.690910
LeftLeg -8.704995 -0.000000 0.000000
LeftFoot -12.853016 21.469343 -8.260443
LeftToeBase 22.740543 -0.000000 -0.000000
RightUpLeg 9.630849 -15.395856 2.013472
RightLeg -5.550187 -0.000000 0.000000
RightFoot -9.105470 -34.910190 6.565921
RightToeBase 13.542086 -0.000000 -0.000000
3309
root -6.068620 35.088826 -9.309235 0.916370 15.291159 -3.338343
Spine -11.310561 4.716082 0.015392
Head -1.018701 -44.032136 -6.448409
LeftShoulder -19.937142 11.748631 -18.062184
LeftArm 21.288721 6.195528 -64.025835
LeftForeArm 13.902685 -0.000000 11.949467
LeftHand 2.343061 -0.000000 -8.606020
LeftHandThumb1 -26.253704 0.000000 33.147579
RightShoulder -8.882659 28.595230 -40.863205
RightArm 77.158278 61.874825 72.082699
RightForeArm 44.839561 -0.000000 28.638961
RightHand -3.218341 -0.000000 -49.249717
RightHandThumb1 -24.326973 -0.000000 -32.862282
LeftUpLeg 5.160887 0.241901 5.673431
LeftLeg -8.748266 -0.000000 0.000000
LeftFoot -12.862503 21.458257 -8.153812
LeftToeBase 22.988305 -0.000000 -0.000000
RightUpLeg 9.683082 -15.396254 1.984915
RightLeg -5.586371 -0.000000 0.000000
RightFoot -9.088445 -34.927435 6.552387
RightToeBase 13.534723 -0.000000 -0.000000
3310
root -6.062647 35.089072 -9.315006 0.936912 15.346085 -3.325953
Spine -11.275260 4.733977 0.018471
Head -0.882415 -44.004443 -6.491752
LeftShoulder -19.947009 11.709302 -18.010023
LeftArm 21.225075 6.156328 -64.180401
LeftForeArm 14.217608 -0.000000 12.048042
LeftHand 2.255951 0.000000 -8.099600
LeftHandThumb1 -26.253704 0.000000 33.147579
RightShoulder -8.892489 28.604584 -40.860267
RightArm 76.752853 62.046181 71.439182
RightForeArm 44.899360 -0.000000 28.784122
RightHand -2.878405 -0.000000 -48.993530
RightHandThumb1 -24.326973 -0.000000 -32.862282
LeftUpLeg 5.131315 0.232637 5.650321
LeftLeg -8.766081 -0.000000 0.000000
LeftFoot -12.824018 21.427170 -8.131913
LeftToeBase 22.964177 -0.000000 -0.000000
RightUpLeg 9.677964 -15.389585 1.974869
RightLeg -5.619234 -0.000000 0.000000
RightFoot -9.067442 -34.981495 6.559834
RightToeBase 13.517780 -0.000000 -0.000000
3311
root -6.057052 35.089381 -9.319440 0.954969 15.401278 -3.313354
Spine -11.241133 4.755597 0.005546
Head -0.703699 -43.946351 -6.543557
LeftShoulder -19.960287 11.651717 -17.985654
LeftArm 21.197352 6.217314 -64.230100
LeftForeArm 14.192833 -0.000000 12.063519
LeftHand 2.223264 -0.000000 -8.367392
LeftHandThumb1 -26.253704 0.000000 33.147579
RightShoulder -8.906930 28.662262 -40.872986
RightArm 76.392971 62.259534 70.906158
RightForeArm 44.722394 -0.000000 28.968861
RightHand -2.952260 -0.000000 -48.714943
RightHandThumb1 -24.326973 -0.000000 -32.862282
LeftUpLeg 5.102785 0.165878 5.624733
LeftLeg -8.765310 -0.000000 0.000000
LeftFoot -12.778117 21.428265 -8.221995
LeftToeBase 22.711893 -0.000000 -0.000000
RightUpLeg 9.677306 -15.409635 1.962118
RightLeg -5.651059 -0.000000 0.000000
RightFoot -9.048319 -35.015112 6.557803
RightToeBase 13.541012 -0.000000 -0.000000
3312
root -6.051356 35.088882 -9.324094 0.970661 15.462831 -3.308542
Spine -11.208025 4.764897 0.005848
Head -0.498154 -43.955427 -6.576359
LeftShoulder -19.989401 11.633735 -17.989095
LeftArm 21.258116 6.313535 -64.221123
LeftForeArm 14.077035 -0.000000 11.985607
LeftHand 2.285626 0.000000 -8.516217
LeftHandThumb1 -26.253704 0.000000 33.147579
RightShoulder -8.907701 28.697892 -40.891461
RightArm 76.073718 62.508720 70.387435
RightForeArm 44.755071 -0.000000 29.072617
RightHand -2.766053 -0.000000 -48.356962
RightHandThumb1 -24.326973 -0.000000 -32.862282
LeftUpLeg 5.069854 0.163296 5.612630
LeftLeg -8.776202 -0.000000 0.000000
LeftFoot -12.790658 21.401899 -8.100697
LeftToeBase 22.976081 -0.000000 -0.000000
RightUpLeg 9.671387 -15.432334 1.956552
RightLeg -5.669874 -0.000000 0.000000
RightFoot -9.041313 -35.055139 6.552674
RightToeBase 13.558236 -0.000000 -0.000000
3313
root -6.045525 35.088184 -9.323732 0.968433 15.512952 -3.305432
Spine -11.171106 4.799328 0.012705
Head -0.229257 -43.987221 -6.692134
LeftShoulder -20.010962 11.638415 -17.969534
LeftArm 21.283780 6.279770 -64.297928
LeftForeArm 14.361871 -0.000000 11.983558
LeftHand 2.256369 -0.000000 -8.216934
LeftHandThumb1 -26.253704 0.000000 33.147579
RightShoulder -8.899952 28.669832 -40.938049
RightArm 75.862768 62.814281 70.016436
RightForeArm 44.791549 -0.000000 29.264480
RightHand -2.785213 -0.000000 -48.228559
RightHandThumb1 -24.326973 -0.000000 -32.862282
LeftUpLeg 5.076863 0.131336 5.602521
LeftLeg -8.802037 -0.000000 0.000000
LeftFoot -12.769264 21.388697 -8.063650
LeftToeBase 23.010512 -0.000000 -0.000000
RightUpLeg 9.704613 -15.471239 1.943654
RightLeg -5.717720 -0.000000 0.000000
RightFoot -9.013844 -35.059384 6.546923
RightToeBase 13.538641 -0.000000 -0.000000
3314
root -6.042237 35.088402 -9.328930 0.990486 15.594871 -3.290709
Spine -11.139510 4.799355 -0.009325
Head -0.021011 -43.983157 -6.708230
LeftShoulder -20.023242 11.628687 -17.943246
LeftArm 21.314380 6.324624 -64.337152
LeftForeArm 14.369426 -0.000000 11.960865
LeftHand 2.254151 -0.000000 -8.149039
LeftHandThumb1 -26.253704 0.000000 33.147579
RightShoulder -8.973398 28.679936 -40.992532
RightArm 75.711055 63.014488 69.756132
RightForeArm 44.825829 -0.000000 29.527547
RightHand -2.359256 -0.000000 -47.760821
RightHandThumb1 -24.326973 -0.000000 -32.862282
LeftUpLeg 5.029390 0.060021 5.581380
LeftLeg -8.794631 -0.000000 0.000000
LeftFoot -12.752451 21.387467 -8.061824
LeftToeBase 23.013815 -0.000000 -0.000000
RightUpLeg 9.698475 -15.509510 1.933779
RightLeg -5.743064 -0.000000 0.000000
RightFoot -8.986155 -35.101818 6.503670
RightToeBase 13.597632 -0.000000 -0.000000
3315
root -6.036910 35.088661 -9.331431 1.005853 15.666327 -3.281431
Spine -11.114248 4.832176 -0.020072
Head 0.231321 -44.047109 -6.782738
LeftShoulder -19.988538 11.621203 -17.872332
LeftArm 21.280790 6.620552 -64.320268
LeftForeArm 13.911902 -0.000000 11.962865
LeftHand 2.226576 -0.000000 -8.396707
LeftHandThumb1 -26.253704 0.000000 33.147579
RightShoulder -9.060909 28.671810 -41.094851
RightArm 75.768748 63.262207 69.806390
RightForeArm 44.782334 -0.000000 29.885973
RightHand -2.274339 -0.000000 -47.390732
RightHandThumb1 -24.326973 -0.000000 -32.862282
LeftUpLeg 4.992505 0.043992 5.564677
LeftLeg -8.788034 -0.000000 0.000000
LeftFoot -12.741782 21.334759 -8.075259
LeftToeBase 23.004330 -0.000000 -0.000000
RightUpLeg 9.702285 -15.554775 1.919261
RightLeg -5.765479 -0.000000 0.000000
RightFoot -8.974537 -35.106265 6.524527
RightToeBase 13.583552 -0.000000 -0.000000
3316
root -6.031891 35.089428 -9.334884 1.027426 15.730576 -3.265417
Spine -11.087115 4.865835 -0.041836
Head 0.504250 -44.155514 -6.846187
LeftShoulder -19.946030 11.583814 -17.826024
LeftArm 21.214714 6.624322 -64.386345
LeftForeArm 13.965777 -0.000000 11.962789
LeftHand 2.201026 0.000000 -8.543494
LeftHandThumb1 -26.253704 0.000000 33.147579
RightShoulder -9.175947 28.712429 -41.200530
RightArm 75.942580 63.494403 70.004273
RightForeArm 44.785500 0.000000 30.292962
RightHand -2.191321 -0.000000 -47.126481
RightHandThumb1 -24.326973 -0.000000 -32.862282
LeftUpLeg 4.956999 0.001621 5.540359
LeftLeg -8.787273 -0.000000 0.000000
LeftFoot -12.714476 21.334282 -8.058452
LeftToeBase 23.021017 -0.000000 -0.000000
RightUpLeg 9.695719 -15.580422 1.905569
RightLeg -5.786858 -0.000000 0.000000
RightFoot -8.967196 -35.146511 6.551767
RightToeBase 13.529622 -0.000000 -0.000000
3317
root -6.025473 35.090096 -9.338971 1.054885 15.804227 -3.226964
Spine -11.065154 4.890411 -0.087718
Head 0.787457 -44.240012 -6.945505
LeftShoulder -19.877549 11.592486 -17.783897
LeftArm 21.177291 6.688167 -64.402032
LeftForeArm 13.870922 0.000000 11.950757
LeftHand 2.329662 -0.000000 -8.468876
LeftHandThumb1 -26.253704 0.000000 33.147579
RightShoulder -9.281330 28.717199 -41.300399
RightArm 76.031672 63.740394 70.128322
RightForeArm 44.923490 -0.000000 30.829059
RightHand -2.027185 -0.000000 -46.931705
RightHandThumb1 -24.326973 -0.000000 -32.862282
LeftUpLeg 4.911708 -0.051169 5.487185
LeftLeg -8.765300 -0.000000 0.000000
LeftFoot -12.665291 21.304211 -8.169989
LeftToeBase 22.711423 -0.000000 -0.000000
RightUpLeg 9.687929 -15.593184 1.870219
RightLeg -5.802767 -0.000000 0.000000
RightFoot -8.962820 -35.212098 6.523766
RightToeBase 13.559638 -0.000000 -0.000000
